<?xml version="1.0" standalone="no"?>
<!DOCTYPE svg PUBLIC "-//W3C//DTD SVG 20010904//EN"
 "http://www.w3.org/TR/2001/REC-SVG-20010904/DTD/svg10.dtd">
<svg version="1.0" xmlns="http://www.w3.org/2000/svg"
 width="122.000000pt" height="105.000000pt" viewBox="0 0 122.000000 105.000000"
 preserveAspectRatio="xMidYMid meet">

<g transform="translate(0.000000,105.000000) scale(0.100000,-0.100000)"
fill="#000000" stroke="none">
<path d="M556 920 c-3 -44 -9 -86 -12 -95 -3 -8 -25 -20 -48 -26 -22 -6 -58
-21 -78 -35 -20 -13 -44 -21 -53 -18 -11 5 -14 2 -9 -9 3 -9 -5 -31 -20 -50
-15 -19 -35 -59 -45 -88 -17 -52 -19 -54 -62 -61 -74 -11 -129 -9 -130 5 0 6
-4 3 -8 -7 -4 -11 -5 -31 -3 -45 4 -21 6 -22 11 -8 6 15 24 19 124 23 79 4
117 2 117 -5 0 -7 -21 -9 -57 -7 -32 2 -46 2 -32 -1 22 -3 29 -12 38 -47 6
-23 22 -60 36 -81 18 -26 25 -45 20 -62 -5 -21 -4 -23 14 -13 16 8 28 5 58
-16 21 -14 57 -30 80 -37 47 -12 48 -14 58 -119 l7 -68 -28 -1 c-27 -2 -26 -2
6 -8 19 -3 49 -4 65 -1 23 3 25 5 9 8 -18 3 -22 12 -28 70 -9 101 -7 162 5
162 7 0 9 -23 6 -67 -3 -38 -3 -51 1 -30 6 35 11 40 57 55 28 10 65 28 83 40
21 16 39 21 53 17 18 -6 20 -4 11 11 -7 13 -5 25 10 45 11 15 29 51 38 80 20
59 24 62 128 72 l62 7 1 -38 2 -37 6 43 c4 23 4 61 0 85 l-6 42 -2 -39 -1 -38
-67 7 c-107 10 -110 12 -117 53 -3 21 -19 59 -35 85 -17 26 -28 54 -25 62 4
11 2 13 -9 9 -8 -3 -39 8 -69 25 -30 17 -62 31 -71 31 -32 0 -45 29 -52 115
-10 113 -30 116 -39 5z m9 -168 c-13 -14 -16 13 -9 80 l9 73 3 -74 c2 -40 0
-76 -3 -79z m-25 21 c0 -24 -101 -64 -125 -50 -15 8 -15 10 4 23 22 16 88 42
109 43 6 1 12 -7 12 -16z m146 -7 c28 -13 54 -29 58 -34 12 -21 -30 -22 -69
-2 -22 11 -45 20 -52 20 -7 0 -13 9 -13 20 0 26 14 25 76 -4z m-11 -51 c40
-20 52 -22 64 -12 14 11 14 10 2 -5 -11 -15 -10 -22 13 -48 21 -26 46 -85 46
-112 0 -13 -86 -9 -146 7 -31 8 -60 12 -64 10 -16 -10 -40 8 -41 29 -1 19 -2
19 -8 -3 -5 -17 -17 -28 -40 -33 -24 -7 -32 -14 -28 -26 13 -47 13 -47 -33
-48 -31 -1 -35 0 -12 3 20 3 32 9 29 16 -2 7 -11 11 -21 9 -10 -2 -16 4 -16
16 0 15 -6 17 -35 14 -32 -4 -35 -2 -35 22 0 35 31 94 67 128 66 63 173 77
258 33z m-270 -34 c-3 -3 -11 1 -16 9 -9 12 -10 12 -5 -3 4 -11 -2 -31 -14
-47 -11 -16 -23 -42 -26 -59 -5 -21 -12 -31 -25 -31 -23 0 -23 4 -3 63 21 62
59 103 80 86 8 -6 12 -14 9 -18z m401 -16 c8 -13 22 -45 29 -70 13 -41 13 -45
-3 -45 -18 0 -76 115 -66 131 9 15 23 10 40 -16z m114 -134 c41 -8 39 -9 -32
-10 -46 0 -78 3 -78 9 0 12 46 12 110 1z m-337 -41 c4 -16 11 -19 39 -14 l33
5 -33 -18 -33 -19 24 -22 c19 -18 35 -22 85 -22 60 0 62 -1 52 -21 -16 -29
-95 -76 -141 -84 -69 -12 -137 12 -190 65 -44 44 -81 122 -65 138 3 3 6 -2 6
-10 0 -9 10 -18 23 -22 31 -8 112 -8 121 1 4 4 19 7 34 8 20 0 26 4 24 18 -4
24 14 22 21 -3z m161 -5 c22 0 41 -5 43 -11 2 -7 -9 -9 -29 -7 -61 7 -79 13
-72 24 4 6 9 7 13 3 3 -5 24 -9 45 -9z m85 -67 c-6 -21 -20 -45 -30 -54 -17
-15 -19 -15 -25 -1 -3 8 2 29 10 46 9 16 16 37 16 45 0 8 8 19 18 25 23 13 28
-11 11 -61z m-471 2 c22 -57 22 -88 1 -74 -12 7 -45 72 -53 107 -5 22 -3 27
11 27 13 0 25 -18 41 -60z m342 24 c0 -2 -19 -4 -42 -3 -35 1 -38 2 -18 8 23
7 60 4 60 -5z m70 -26 c0 -10 -117 -10 -123 0 -3 4 24 7 59 7 35 0 64 -3 64
-7z m1 -70 c11 -21 11 -22 -4 -9 -10 7 -17 17 -17 22 0 15 9 10 21 -13z m-351
-13 c0 -2 -10 -10 -22 -16 -21 -11 -22 -11 -9 4 13 16 31 23 31 12z m314 -11
c9 -3 16 -10 16 -14 0 -11 -100 -60 -122 -60 -28 0 -21 29 10 40 15 6 38 17
52 25 30 17 25 16 44 9z m-239 -27 c42 -16 61 -47 28 -47 -31 0 -125 49 -118
61 8 12 28 9 90 -14z"/>
<path d="M561 691 c-6 -11 -10 -35 -10 -53 2 -30 2 -31 6 -5 3 18 10 27 23 27
13 0 17 5 13 20 -8 29 -20 33 -32 11z"/>
<path d="M451 574 c0 -11 3 -14 6 -6 3 7 2 16 -1 19 -3 4 -6 -2 -5 -13z"/>
<path d="M678 573 c7 -3 16 -2 19 1 4 3 -2 6 -13 5 -11 0 -14 -3 -6 -6z"/>
<path d="M441 534 c0 -11 3 -14 6 -6 3 7 2 16 -1 19 -3 4 -6 -2 -5 -13z"/>
<path d="M488 983 c6 -2 18 -2 25 0 6 3 1 5 -13 5 -14 0 -19 -2 -12 -5z"/>
<path d="M633 983 c9 -2 23 -2 30 0 6 3 -1 5 -18 5 -16 0 -22 -2 -12 -5z"/>
<path d="M448 973 c7 -3 16 -2 19 1 4 3 -2 6 -13 5 -11 0 -14 -3 -6 -6z"/>
<path d="M688 973 c7 -3 16 -2 19 1 4 3 -2 6 -13 5 -11 0 -14 -3 -6 -6z"/>
<path d="M370 950 c-8 -5 -10 -10 -5 -10 6 0 17 5 25 10 8 5 11 10 5 10 -5 0
-17 -5 -25 -10z"/>
<path d="M826 912 c56 -36 106 -85 147 -142 l18 -25 -12 24 c-26 54 -169 181
-204 181 -4 0 18 -17 51 -38z"/>
<path d="M288 901 c-30 -22 -67 -57 -83 -78 -26 -35 -24 -34 16 8 24 25 63 59
87 74 37 25 49 35 39 35 -2 0 -28 -18 -59 -39z"/>
<path d="M383 874 c-8 -21 12 -38 34 -30 17 7 17 8 1 20 -10 7 -15 16 -11 19
3 4 1 7 -6 7 -6 0 -14 -7 -18 -16z"/>
<path d="M739 883 c-1 -5 -1 -11 0 -15 0 -5 -4 -8 -11 -8 -9 0 -9 -3 0 -12 14
-14 17 -11 26 20 5 13 3 22 -3 22 -6 0 -12 -3 -12 -7z"/>
<path d="M340 850 c-13 -8 -13 -11 3 -27 11 -11 17 -13 17 -5 0 7 5 10 11 6 7
-4 10 1 7 11 -4 22 -18 28 -38 15z"/>
<path d="M775 844 c-17 -13 -18 -16 -5 -24 21 -13 27 -12 34 6 14 36 4 43 -29
18z"/>
<path d="M310 822 c0 -5 7 -15 15 -22 8 -7 15 -8 15 -2 0 5 -7 15 -15 22 -8 7
-15 8 -15 2z"/>
<path d="M822 809 c-10 -15 -10 -19 2 -19 15 0 29 27 18 34 -5 3 -13 -4 -20
-15z"/>
<path d="M282 807 c-8 -10 -6 -16 9 -26 26 -16 29 -12 14 17 -10 18 -14 20
-23 9z"/>
<path d="M856 771 c-11 -13 -14 -21 -7 -26 6 -3 11 -1 11 5 0 6 4 9 9 6 5 -3
11 1 15 9 8 23 -10 27 -28 6z"/>
<path d="M160 760 c-6 -11 -8 -20 -6 -20 3 0 10 9 16 20 6 11 8 20 6 20 -3 0
-10 -9 -16 -20z"/>
<path d="M250 772 c0 -5 6 -16 13 -24 10 -14 14 -15 25 -3 10 12 9 16 -7 25
-24 12 -31 13 -31 2z"/>
<path d="M892 729 c-13 -20 -9 -22 21 -10 16 6 17 9 5 18 -11 9 -16 8 -26 -8z"/>
<path d="M223 724 c-8 -20 17 -36 34 -22 10 8 10 14 2 24 -15 18 -28 18 -36
-2z"/>
<path d="M126 695 c-9 -26 -7 -32 5 -12 6 10 9 21 6 23 -2 3 -7 -2 -11 -11z"/>
<path d="M916 685 c-19 -14 -19 -15 7 -15 19 0 25 4 21 15 -4 8 -7 15 -8 15 0
0 -10 -7 -20 -15z"/>
<path d="M1011 695 c1 -19 18 -51 18 -35 0 8 -4 22 -9 30 -5 8 -9 11 -9 5z"/>
<path d="M195 681 c-3 -6 3 -15 14 -20 27 -15 31 -14 31 9 0 21 -33 29 -45 11z"/>
<path d="M111 644 c0 -11 3 -14 6 -6 3 7 2 16 -1 19 -3 4 -6 -2 -5 -13z"/>
<path d="M1031 624 c0 -11 3 -14 6 -6 3 7 2 16 -1 19 -3 4 -6 -2 -5 -13z"/>
<path d="M102 600 c0 -14 2 -19 5 -12 2 6 2 18 0 25 -3 6 -5 1 -5 -13z"/>
<path d="M101 439 c0 -13 4 -33 9 -44 7 -14 8 -8 3 20 -7 46 -13 59 -12 24z"/>
<path d="M1032 410 c0 -14 2 -19 5 -12 2 6 2 18 0 25 -3 6 -5 1 -5 -13z"/>
<path d="M203 385 c-8 -22 2 -29 24 -16 17 10 17 10 -2 11 -17 0 -17 2 -5 10
10 7 11 10 2 10 -7 0 -15 -7 -19 -15z"/>
<path d="M909 368 c-1 -13 -1 -26 0 -30 0 -5 -3 -8 -7 -8 -12 0 -32 -46 -25
-54 13 -13 25 -5 20 13 -3 15 -1 18 11 14 11 -5 14 -2 9 10 -4 10 -1 17 6 17
8 0 6 4 -3 10 -13 8 -13 10 2 10 26 0 31 18 8 30 -17 9 -20 8 -21 -12z"/>
<path d="M215 351 c-6 -11 11 -24 23 -17 5 3 9 -1 9 -9 0 -8 -5 -12 -10 -8 -5
3 -4 -4 3 -16 6 -12 18 -25 26 -28 8 -3 14 -12 14 -19 0 -12 4 -12 21 -4 20
11 20 12 -5 31 -15 12 -31 17 -38 13 -10 -6 -10 -5 -1 7 10 12 9 20 -3 37 -16
24 -29 28 -39 13z"/>
<path d="M130 333 c0 -22 79 -130 125 -171 58 -51 155 -101 210 -107 34 -5 32
-3 -14 10 -119 34 -224 114 -286 219 -19 33 -35 55 -35 49z"/>
<path d="M991 303 c-10 -26 -10 -27 4 -9 8 11 15 23 15 28 0 15 -7 8 -19 -19z"/>
<path d="M841 269 c-1 -17 22 -32 33 -22 12 12 6 25 -8 20 -8 -3 -17 -1 -20 6
-2 7 -5 5 -5 -4z"/>
<path d="M950 238 c-15 -21 -17 -28 -6 -19 16 13 41 51 33 51 -2 0 -14 -15
-27 -32z"/>
<path d="M322 237 c-8 -10 -7 -17 7 -29 16 -14 18 -13 18 14 0 30 -8 35 -25
15z"/>
<path d="M792 217 c-12 -13 -19 -26 -16 -30 3 -3 -3 -3 -15 0 -21 5 -29 -11
-11 -22 16 -10 52 15 46 32 -6 14 -4 14 10 2 15 -12 16 -11 9 11 -7 22 -6 23
9 11 14 -12 16 -12 10 3 -8 22 -16 20 -42 -7z"/>
<path d="M350 220 c0 -5 5 -10 10 -10 6 0 10 5 10 10 0 6 -4 10 -10 10 -5 0
-10 -4 -10 -10z"/>
<path d="M367 203 c-13 -12 -7 -25 8 -19 8 3 15 0 15 -6 0 -9 3 -9 12 0 10 10
10 15 -2 22 -18 12 -25 12 -33 3z"/>
<path d="M415 179 c-4 -6 -3 -15 3 -21 6 -6 11 -4 15 6 7 18 -9 31 -18 15z"/>
<path d="M713 174 c-7 -19 11 -41 21 -25 4 6 2 11 -4 11 -7 0 -10 7 -6 15 3 8
3 15 0 15 -2 0 -7 -7 -11 -16z"/>
<path d="M440 154 c0 -8 5 -12 10 -9 6 3 10 10 10 16 0 5 -4 9 -10 9 -5 0 -10
-7 -10 -16z"/>
<path d="M864 148 l-19 -23 23 19 c21 18 27 26 19 26 -2 0 -12 -10 -23 -22z"/>
<path d="M814 114 c-18 -14 -18 -15 4 -4 12 6 22 13 22 15 0 8 -5 6 -26 -11z"/>
<path d="M740 80 c-8 -5 -10 -10 -5 -10 6 0 17 5 25 10 8 5 11 10 5 10 -5 0
-17 -5 -25 -10z"/>
<path d="M698 63 c7 -3 16 -2 19 1 4 3 -2 6 -13 5 -11 0 -14 -3 -6 -6z"/>
<path d="M658 53 c7 -3 16 -2 19 1 4 3 -2 6 -13 5 -11 0 -14 -3 -6 -6z"/>
</g>
</svg>
